#N canvas 892 418 1109 884 12;
#X obj 160 124 osc/packOSC;
#X obj 159 175 slipenc;
#X msg 296 190 devices;
#X obj 168 267 slipdec;
#X msg 450 213 close;
#X obj 166 312 osc/unpackOSC;
#X floatatom 171 566 5 0 0 0 - - - 0;
#X msg 490 38 send /leader/ping;
#X obj 169 376 unpack f f f f f f;
#X floatatom 193 530 5 0 0 0 - - - 0;
#X floatatom 218 493 10 0 0 0 - - - 0;
#X floatatom 244 458 5 0 0 0 - - - 0;
#X floatatom 266 423 5 0 0 0 - - - 0;
#X text 217 570 channel;
#X text 296 496 total packets sent;
#X text 235 533 uptime seconds;
#X text 296 462 total packets sent;
#X text 313 426 dropped packets;
#X obj 167 346 osc/routeOSC /leader/ping;
#X obj 330 667 print;
#X obj 328 599 osc/routeOSC /sys/pong;
#X obj 171 597 bng 19 250 50 0 empty empty empty 0 -10 0 12 #fcfcfc #000000 #000000;
#X obj 410 668 bng 19 250 50 0 empty empty empty 0 -10 0 12 #fcfcfc #000000 #000000;
#X msg 425 159 open 3;
#X msg 165 43 send /test 1;
#X msg 163 76 send /test 0;
#X floatatom 526 783 5 0 0 0 - - - 0;
#X obj 523 822 bng 19 250 50 0 empty empty empty 0 -10 0 12 #fcfcfc #000000 #000000;
#X obj 160 222 comport 3 230400;
#X obj 691 492 comport 4 230400;
#X obj 667 563;
#X obj 784 587 osc/unpackOSC;
#X obj 868 650 print observer;
#X obj 851 529 slipdec;
#X obj 692 420 slipenc;
#X obj 717 329 osc/packOSC;
#X msg 722 278 send /hi 11;
#X obj 45 402 print leader;
#X msg 813 422 open 4;
#X msg 678 39 send /sys/ping 0;
#X obj 522 722 route /sensor/pot;
#X text 901 373 tethered follower;
#X text 299 252 leader;
#X text 585 677 comment;
#X msg 696 71 send /sys/ping 1000;
#X msg 519 116 send /leader/hop;
#X connect 0 0 1 0;
#X connect 1 0 28 0;
#X connect 2 0 28 0;
#X connect 3 0 5 0;
#X connect 4 0 28 0;
#X connect 5 0 18 0;
#X connect 5 0 37 0;
#X connect 6 0 21 0;
#X connect 7 0 0 0;
#X connect 8 0 6 0;
#X connect 8 1 9 0;
#X connect 8 2 10 0;
#X connect 8 3 11 0;
#X connect 8 4 12 0;
#X connect 18 0 8 0;
#X connect 18 1 20 0;
#X connect 20 0 22 0;
#X connect 20 1 40 0;
#X connect 23 0 28 0;
#X connect 24 0 0 0;
#X connect 25 0 0 0;
#X connect 26 0 27 0;
#X connect 28 0 3 0;
#X connect 29 0 33 0;
#X connect 31 0 32 0;
#X connect 33 0 31 0;
#X connect 34 0 29 0;
#X connect 35 0 34 0;
#X connect 36 0 35 0;
#X connect 38 0 29 0;
#X connect 39 0 0 0;
#X connect 40 0 26 0;
#X connect 45 0 0 0;
